<svg width="525" height="439" viewBox="0 0 525 439" fill="none" xmlns="http://www.w3.org/2000/svg">
<g opacity="0.75">
<path d="M268.811 419.531C378.565 419.531 467.537 330.559 467.537 220.806C467.537 111.052 378.565 22.0796 268.811 22.0796C159.058 22.0796 70.0854 111.052 70.0854 220.806C70.0854 330.559 159.058 419.531 268.811 419.531Z" fill="url(#paint0_linear_962_44695)"/>
<path fill-rule="evenodd" clip-rule="evenodd" d="M4.74591 124.249C39.5725 103.336 79.0256 99.3545 116.8 100.606C122.197 100.785 126.428 105.305 126.249 110.703C126.07 116.1 121.549 120.331 116.152 120.152C79.8993 118.951 44.9127 122.941 14.8138 141.015C10.1839 143.795 4.17692 142.296 1.39676 137.666C-1.3834 133.036 0.116066 127.029 4.74591 124.249Z" fill="url(#paint1_linear_962_44695)"/>
<g opacity="0.5" filter="url(#filter0_f_962_44695)">
<ellipse cx="222.962" cy="191.867" rx="119.822" ry="20.4759" fill="#B2B2B2"/>
</g>
<g opacity="0.5" filter="url(#filter1_f_962_44695)">
<ellipse cx="295.765" cy="396.626" rx="119.822" ry="20.4759" fill="#B2B2B2"/>
</g>
<path fill-rule="evenodd" clip-rule="evenodd" d="M523.354 283.137C526.134 287.766 524.635 293.773 520.005 296.554C485.182 317.464 445.709 321.447 407.938 320.196C402.54 320.018 398.31 315.497 398.488 310.1C398.667 304.702 403.187 300.472 408.585 300.65C444.837 301.85 479.843 297.859 509.937 279.787C514.567 277.007 520.574 278.507 523.354 283.137Z" fill="url(#paint2_linear_962_44695)"/>
<path d="M254.84 395.355H354.16C387.462 395.355 414.464 359.287 414.464 314.781C414.464 270.276 387.462 234.193 354.16 234.193H254.84C275.444 234.193 293.632 247.995 304.5 269.116C311.493 283.338 315.13 298.975 315.13 314.823C315.13 330.671 311.493 346.308 304.5 360.53C293.632 381.595 275.444 395.355 254.84 395.355Z" fill="#72D1E5"/>
<path d="M326.249 263.78C314.124 240.27 293.827 224.876 270.848 224.876H248.651C211.493 224.876 181.362 265.135 181.362 314.781C181.362 364.428 211.493 404.673 248.651 404.687H270.918C293.897 404.687 314.222 389.321 326.319 365.783C334.117 349.917 338.172 332.474 338.172 314.795C338.172 297.117 334.117 279.674 326.319 263.808L326.249 263.78Z" fill="url(#paint3_linear_962_44695)"/>
<path d="M303.801 263.78C291.704 240.312 271.449 224.932 248.512 224.876C211.382 224.876 181.292 265.163 181.292 314.781C181.292 364.399 211.382 404.63 248.512 404.686C271.449 404.686 291.704 389.32 303.801 365.782C311.608 349.919 315.668 332.475 315.668 314.795C315.668 297.115 311.608 279.671 303.801 263.808V263.78Z" fill="url(#paint4_linear_962_44695)"/>
<path d="M257.373 298.205C254.024 304.095 248.418 307.952 242.071 307.952H235.939C225.676 307.952 217.353 297.866 217.353 285.428C217.353 272.991 225.676 262.909 235.939 262.905H242.09C248.437 262.905 254.051 266.755 257.393 272.652C259.547 276.626 260.667 280.996 260.667 285.425C260.667 289.854 259.547 294.224 257.393 298.198L257.373 298.205Z" fill="url(#paint5_linear_962_44695)"/>
<path d="M257.373 358.845C254.024 364.735 248.418 368.591 242.071 368.591H235.939C225.676 368.591 217.353 358.506 217.353 346.068C217.353 333.631 225.676 323.548 235.939 323.545H242.09C248.437 323.545 254.051 327.394 257.393 333.291C259.547 337.266 260.667 341.636 260.667 346.065C260.667 350.493 259.547 354.863 257.393 358.838L257.373 358.845Z" fill="url(#paint6_linear_962_44695)"/>
<path d="M250.523 298.205C247.248 304.085 241.764 307.938 235.553 307.952C225.5 307.952 217.353 297.859 217.353 285.428C217.353 272.998 225.5 262.919 235.553 262.905C241.764 262.905 247.248 266.755 250.523 272.652C252.637 276.626 253.736 280.996 253.736 285.425C253.736 289.854 252.637 294.224 250.523 298.198V298.205Z" fill="#3AAFCA"/>
<path d="M250.523 358.845C247.248 364.724 241.764 368.577 235.553 368.591C225.5 368.591 217.353 358.499 217.353 346.068C217.353 333.638 225.5 323.559 235.553 323.545C241.764 323.545 247.248 327.394 250.523 333.291C252.637 337.265 253.736 341.635 253.736 346.065C253.736 350.494 252.637 354.864 250.523 358.838V358.845Z" fill="#3AAFCA"/>
<path d="M269.911 197.701H170.591C137.289 197.701 110.273 161.633 110.273 117.127C110.273 72.6217 137.289 36.5396 170.591 36.5396H269.911C249.307 36.5396 231.119 50.341 220.251 71.4623C213.124 85.6414 209.475 101.314 209.607 117.183C209.474 133.048 213.123 148.716 220.251 162.89C231.119 183.899 249.307 197.701 269.911 197.701Z" fill="url(#paint7_linear_962_44695)"/>
<path d="M198.489 66.1812C210.628 42.6713 230.925 27.2773 253.904 27.2773H276.171C313.329 27.2773 343.46 67.5362 343.46 117.182C343.46 166.828 313.329 207.073 276.171 207.087H253.904C230.925 207.087 210.6 191.721 198.489 168.183C190.552 152.362 186.488 134.882 186.629 117.182C186.488 99.4827 190.552 82.0025 198.489 66.1812Z" fill="url(#paint8_linear_962_44695)"/>
<path d="M220.936 66.1812C233.047 42.7132 253.288 27.3332 276.239 27.2773C313.369 27.2773 343.459 67.5642 343.459 117.182C343.459 166.801 313.369 207.032 276.239 207.073C253.288 207.073 233.047 191.707 220.936 168.183C212.999 152.362 208.935 134.882 209.076 117.182C208.935 99.4827 212.999 82.0025 220.936 66.1812Z" fill="url(#paint9_linear_962_44695)"/>
<path d="M282.023 101.788C289.282 101.788 295.168 93.6201 295.168 83.5444C295.168 73.4687 289.282 65.3008 282.023 65.3008C274.763 65.3008 268.878 73.4687 268.878 83.5444C268.878 93.6201 274.763 101.788 282.023 101.788Z" fill="url(#paint10_linear_962_44695)"/>
<path d="M282.324 105.243C291.414 105.243 298.783 95.5465 298.783 83.5857C298.783 71.6249 291.414 61.9287 282.324 61.9287C273.233 61.9287 265.864 71.6249 265.864 83.5857C265.864 95.5465 273.233 105.243 282.324 105.243Z" fill="#29AAC7"/>
<path d="M282.324 174.545C291.414 174.545 298.783 164.849 298.783 152.888C298.783 140.927 291.414 131.231 282.324 131.231C273.233 131.231 265.864 140.927 265.864 152.888C265.864 164.849 273.233 174.545 282.324 174.545Z" fill="#29AAC7"/>
<path d="M87.446 232.937C87.9635 230.793 91.0131 230.793 91.5307 232.937L96.2655 252.552C96.4505 253.318 97.0487 253.916 97.8149 254.101L117.429 258.836C119.573 259.353 119.573 262.403 117.429 262.921L97.8149 267.655C97.0487 267.84 96.4505 268.439 96.2655 269.205L91.5307 288.819C91.0131 290.963 87.9635 290.963 87.446 288.819L82.7111 269.205C82.5262 268.439 81.928 267.84 81.1618 267.655L61.5474 262.921C59.4034 262.403 59.4034 259.353 61.5474 258.836L81.1618 254.101C81.928 253.916 82.5262 253.318 82.7111 252.552L87.446 232.937Z" fill="#68C9DF"/>
<path d="M282.023 101.788C289.282 101.788 295.168 93.6201 295.168 83.5444C295.168 73.4687 289.282 65.3008 282.023 65.3008C274.763 65.3008 268.878 73.4687 268.878 83.5444C268.878 93.6201 274.763 101.788 282.023 101.788Z" fill="url(#paint11_linear_962_44695)"/>
<path d="M282.023 171.09C289.282 171.09 295.168 162.922 295.168 152.847C295.168 142.771 289.282 134.603 282.023 134.603C274.763 134.603 268.878 142.771 268.878 152.847C268.878 162.922 274.763 171.09 282.023 171.09Z" fill="url(#paint12_linear_962_44695)"/>
<path d="M389.276 8.46072C389.794 6.3167 392.843 6.3167 393.361 8.46073L398.096 28.0751C398.281 28.8413 398.879 29.4395 399.645 29.6245L419.259 34.3593C421.403 34.8768 421.403 37.9265 419.259 38.444L399.645 43.1788C398.879 43.3638 398.281 43.962 398.096 44.7282L393.361 64.3426C392.843 66.4866 389.794 66.4866 389.276 64.3426L384.541 44.7282C384.356 43.962 383.758 43.3638 382.992 43.1788L363.377 38.444C361.233 37.9265 361.233 34.8768 363.377 34.3593L382.992 29.6245C383.758 29.4395 384.356 28.8413 384.541 28.0751L389.276 8.46072Z" fill="#68C9DF"/>
<circle cx="89.489" cy="171.391" r="9.304" stroke="#6ACBE1" stroke-width="2.6263"/>
<circle cx="434.144" cy="365.348" r="9.304" stroke="#6ACBE1" stroke-width="2.6263"/>
<path d="M425.675 225.876C425.342 224.57 426.547 223.393 427.845 223.758L447.297 229.224C448.594 229.589 449.011 231.221 448.046 232.163L433.586 246.275C432.621 247.217 431 246.761 430.667 245.455L425.675 225.876Z" fill="#68C9DF"/>
<path d="M155.268 374.114C156.574 373.782 157.75 374.99 157.383 376.287L151.892 395.731C151.525 397.029 149.892 397.443 148.952 396.477L134.858 381.999C133.918 381.033 134.376 379.412 135.682 379.08L155.268 374.114Z" fill="#68C9DF"/>
<circle cx="212.377" cy="11.9062" r="9.304" stroke="#6ACBE1" stroke-width="2.6263"/>
<rect x="161.911" y="269.835" width="86.6278" height="31.186" rx="15.593" fill="url(#paint13_linear_962_44695)"/>
<rect x="161.911" y="330.475" width="86.6278" height="31.186" rx="15.593" fill="url(#paint14_linear_962_44695)"/>
</g>
<defs>
<filter id="filter0_f_962_44695" x="81.2538" y="149.505" width="283.416" height="84.7233" filterUnits="userSpaceOnUse" color-interpolation-filters="sRGB">
<feFlood flood-opacity="0" result="BackgroundImageFix"/>
<feBlend mode="normal" in="SourceGraphic" in2="BackgroundImageFix" result="shape"/>
<feGaussianBlur stdDeviation="10.9429" result="effect1_foregroundBlur_962_44695"/>
</filter>
<filter id="filter1_f_962_44695" x="154.057" y="354.265" width="283.416" height="84.7233" filterUnits="userSpaceOnUse" color-interpolation-filters="sRGB">
<feFlood flood-opacity="0" result="BackgroundImageFix"/>
<feBlend mode="normal" in="SourceGraphic" in2="BackgroundImageFix" result="shape"/>
<feGaussianBlur stdDeviation="10.9429" result="effect1_foregroundBlur_962_44695"/>
</filter>
<linearGradient id="paint0_linear_962_44695" x1="267.279" y1="-42.6305" x2="271.35" y2="655.265" gradientUnits="userSpaceOnUse">
<stop stop-color="#72D0E5"/>
<stop offset="1" stop-color="#F1F1F1" stop-opacity="0"/>
</linearGradient>
<linearGradient id="paint1_linear_962_44695" x1="111.667" y1="142.693" x2="28.7261" y2="61.1778" gradientUnits="userSpaceOnUse">
<stop stop-color="#69C9DF"/>
<stop offset="1" stop-color="#F7F7FF"/>
</linearGradient>
<linearGradient id="paint2_linear_962_44695" x1="408.003" y1="334.44" x2="488.03" y2="388.319" gradientUnits="userSpaceOnUse">
<stop stop-color="#67C8DE"/>
<stop offset="1" stop-color="#F7F7FF"/>
</linearGradient>
<linearGradient id="paint3_linear_962_44695" x1="315.146" y1="350.046" x2="194.06" y2="148.77" gradientUnits="userSpaceOnUse">
<stop stop-color="#6CCCE1"/>
<stop offset="1" stop-color="#F7F7FF"/>
</linearGradient>
<linearGradient id="paint4_linear_962_44695" x1="193.037" y1="326.439" x2="316.039" y2="325.573" gradientUnits="userSpaceOnUse">
<stop stop-color="#67C8DD"/>
<stop offset="1" stop-color="#8AE0F3"/>
</linearGradient>
<linearGradient id="paint5_linear_962_44695" x1="267.597" y1="297.556" x2="229.071" y2="243.766" gradientUnits="userSpaceOnUse">
<stop stop-color="#36AAC4"/>
<stop offset="1" stop-color="#F7F7FF"/>
</linearGradient>
<linearGradient id="paint6_linear_962_44695" x1="267.597" y1="358.196" x2="229.071" y2="304.405" gradientUnits="userSpaceOnUse">
<stop stop-color="#36AAC4"/>
<stop offset="1" stop-color="#F7F7FF"/>
</linearGradient>
<linearGradient id="paint7_linear_962_44695" x1="152.382" y1="205.066" x2="144.849" y2="-43.1396" gradientUnits="userSpaceOnUse">
<stop stop-color="#69CBDF"/>
<stop offset="1" stop-color="#F7F7FF"/>
</linearGradient>
<linearGradient id="paint8_linear_962_44695" x1="280.592" y1="167.815" x2="246.806" y2="-53.8522" gradientUnits="userSpaceOnUse">
<stop stop-color="#67C9DF"/>
<stop offset="1" stop-color="#F7F7FF"/>
</linearGradient>
<linearGradient id="paint9_linear_962_44695" x1="220.818" y1="128.832" x2="343.829" y2="127.966" gradientUnits="userSpaceOnUse">
<stop stop-color="#68C9DF"/>
<stop offset="1" stop-color="#8DE1F4"/>
</linearGradient>
<linearGradient id="paint10_linear_962_44695" x1="256.329" y1="102.466" x2="358.909" y2="94.7162" gradientUnits="userSpaceOnUse">
<stop stop-color="#5149F2"/>
<stop offset="1" stop-color="#F7F7FF"/>
</linearGradient>
<linearGradient id="paint11_linear_962_44695" x1="272.794" y1="69.7245" x2="368.191" y2="96.6396" gradientUnits="userSpaceOnUse">
<stop stop-color="#6BCADF"/>
<stop offset="1" stop-color="#F7F7FF"/>
</linearGradient>
<linearGradient id="paint12_linear_962_44695" x1="272.794" y1="139.027" x2="368.191" y2="165.942" gradientUnits="userSpaceOnUse">
<stop stop-color="#6BCADF"/>
<stop offset="1" stop-color="#F7F7FF"/>
</linearGradient>
<linearGradient id="paint13_linear_962_44695" x1="235.819" y1="291.544" x2="184.796" y2="240.703" gradientUnits="userSpaceOnUse">
<stop stop-color="#69CAE0"/>
<stop offset="1" stop-color="#F7F7FF"/>
</linearGradient>
<linearGradient id="paint14_linear_962_44695" x1="235.819" y1="352.184" x2="227.148" y2="306.279" gradientUnits="userSpaceOnUse">
<stop stop-color="#6CCCE1"/>
<stop offset="1" stop-color="#F7F7FF"/>
</linearGradient>
</defs>
</svg>
