<svg width="373" height="368" viewBox="0 0 373 368" fill="none" xmlns="http://www.w3.org/2000/svg">
<path d="M187.568 367.346C283.412 367.346 361.11 289.649 361.11 193.804C361.11 97.9595 283.412 20.2622 187.568 20.2622C91.7232 20.2622 14.0259 97.9595 14.0259 193.804C14.0259 289.649 91.7232 367.346 187.568 367.346Z" fill="url(#paint0_linear_595_23892)"/>
<path d="M281.192 60.6445H88.9443C76.9613 60.6445 67.2471 70.3587 67.2471 82.3418H302.889C302.889 70.3587 293.175 60.6445 281.192 60.6445Z" fill="url(#paint1_linear_595_23892)"/>
<path d="M67.2471 81.7495H302.889V261.219C302.889 269.198 299.72 276.85 294.077 282.493C288.435 288.135 280.783 291.305 272.803 291.305H97.3331C89.3538 291.305 81.7013 288.135 76.0591 282.493C70.4168 276.85 67.2471 269.198 67.2471 261.219V81.7495Z" fill="url(#paint2_linear_595_23892)"/>
<path d="M262.384 104.417H107.829C104.61 104.417 102.001 107.024 102.001 110.239C102.001 113.454 104.61 116.061 107.829 116.061H262.384C265.603 116.061 268.212 113.454 268.212 110.239C268.212 107.024 265.603 104.417 262.384 104.417Z" fill="url(#paint3_linear_595_23892)"/>
<path d="M262.384 153.885H107.829C104.61 153.885 102.001 156.492 102.001 159.707C102.001 162.922 104.61 165.529 107.829 165.529H262.384C265.603 165.529 268.212 162.922 268.212 159.707C268.212 156.492 265.603 153.885 262.384 153.885Z" fill="url(#paint4_linear_595_23892)"/>
<path d="M262.384 203.354H107.829C104.61 203.354 102.001 205.96 102.001 209.175C102.001 212.39 104.61 214.997 107.829 214.997H262.384C265.603 214.997 268.212 212.39 268.212 209.175C268.212 205.96 265.603 203.354 262.384 203.354Z" fill="url(#paint5_linear_595_23892)"/>
<path d="M262.384 252.822H107.829C104.61 252.822 102.001 255.428 102.001 258.643C102.001 261.859 104.61 264.465 107.829 264.465H262.384C265.603 264.465 268.212 261.859 268.212 258.643C268.212 255.428 265.603 252.822 262.384 252.822Z" fill="url(#paint6_linear_595_23892)"/>
<g filter="url(#filter0_d_595_23892)">
<path d="M106.782 192.744H24.484C17.8724 192.744 12.5127 198.103 12.5127 204.715V322.347C12.5127 328.958 17.8724 334.318 24.484 334.318H106.782C113.394 334.318 118.754 328.958 118.754 322.347V204.715C118.754 198.103 113.394 192.744 106.782 192.744Z" fill="url(#paint7_linear_595_23892)"/>
</g>
<g filter="url(#filter1_d_595_23892)">
<path d="M341.059 9H250.158C245.922 9 242.488 12.4339 242.488 16.6697V59.3957C242.488 63.6315 245.922 67.0654 250.158 67.0654H341.059C345.295 67.0654 348.729 63.6315 348.729 59.3957V16.6697C348.729 12.4339 345.295 9 341.059 9Z" fill="url(#paint8_linear_595_23892)"/>
</g>
<path d="M97.5989 251.591H33.6677C31.5149 251.591 29.7698 253.336 29.7698 255.489V255.501C29.7698 257.654 31.5149 259.399 33.6677 259.399H97.5989C99.7517 259.399 101.497 257.654 101.497 255.501V255.489C101.497 253.336 99.7517 251.591 97.5989 251.591Z" fill="url(#paint9_linear_595_23892)"/>
<path d="M97.6349 306.535H34.2531C32.1188 306.535 30.3887 308.226 30.3887 310.312V310.324C30.3887 312.409 32.1188 314.1 34.2531 314.1H97.6349C99.7692 314.1 101.499 312.409 101.499 310.324V310.312C101.499 308.226 99.7692 306.535 97.6349 306.535Z" fill="url(#paint10_linear_595_23892)"/>
<path d="M97.6349 277.789H34.2531C32.1188 277.789 30.3887 279.479 30.3887 281.565V281.577C30.3887 283.663 32.1188 285.354 34.2531 285.354H97.6349C99.7692 285.354 101.499 283.663 101.499 281.577V281.565C101.499 279.479 99.7692 277.789 97.6349 277.789Z" fill="url(#paint11_linear_595_23892)"/>
<path d="M57.0429 210.909H38.3606C34.2222 210.909 30.8674 214.263 30.8674 218.402V223.586C30.8674 227.725 34.2222 231.08 38.3606 231.08H57.0429C61.1812 231.08 64.536 227.725 64.536 223.586V218.402C64.536 214.263 61.1812 210.909 57.0429 210.909Z" fill="url(#paint12_linear_595_23892)"/>
<path d="M264.922 46.8443C269.792 46.8443 273.74 42.8965 273.74 38.0266C273.74 33.1568 269.792 29.209 264.922 29.209C260.053 29.209 256.105 33.1568 256.105 38.0266C256.105 42.8965 260.053 46.8443 264.922 46.8443Z" fill="#81D5E7"/>
<path d="M296.434 46.8443C301.303 46.8443 305.251 42.8965 305.251 38.0266C305.251 33.1568 301.303 29.209 296.434 29.209C291.564 29.209 287.616 33.1568 287.616 38.0266C287.616 42.8965 291.564 46.8443 296.434 46.8443Z" fill="#81D5E7"/>
<path d="M327.945 46.8443C332.815 46.8443 336.763 42.8965 336.763 38.0266C336.763 33.1568 332.815 29.209 327.945 29.209C323.075 29.209 319.127 33.1568 319.127 38.0266C319.127 42.8965 323.075 46.8443 327.945 46.8443Z" fill="#81D5E7"/>
<path d="M173.889 310.14C174.407 307.996 177.457 307.996 177.974 310.14L181.812 326.038C181.997 326.804 182.595 327.403 183.361 327.588L199.26 331.425C201.404 331.943 201.404 334.993 199.26 335.51L183.361 339.348C182.595 339.533 181.997 340.131 181.812 340.897L177.974 356.796C177.457 358.94 174.407 358.94 173.889 356.796L170.052 340.897C169.867 340.131 169.269 339.533 168.502 339.348L152.604 335.51C150.46 334.993 150.46 331.943 152.604 331.425L168.502 327.588C169.269 327.403 169.867 326.804 170.052 326.038L173.889 310.14Z" fill="url(#paint13_linear_595_23892)"/>
<path d="M48.3111 19.6453C48.8287 17.5013 51.8783 17.5013 52.3959 19.6453L56.2336 35.5436C56.4186 36.3098 57.0168 36.908 57.783 37.093L73.6813 40.9308C75.8254 41.4483 75.8254 44.4979 73.6813 45.0155L57.783 48.8533C57.0168 49.0382 56.4186 49.6364 56.2336 50.4026L52.3959 66.301C51.8783 68.445 48.8287 68.445 48.3111 66.301L44.4734 50.4026C44.2884 49.6364 43.6902 49.0382 42.924 48.8533L27.0257 45.0155C24.8816 44.4979 24.8816 41.4483 27.0257 40.9308L42.924 37.093C43.6902 36.908 44.2884 36.3098 44.4734 35.5436L48.3111 19.6453Z" fill="url(#paint14_linear_595_23892)"/>
<path fill-rule="evenodd" clip-rule="evenodd" d="M180.649 25.7543C183.575 25.7543 185.947 23.3823 185.947 20.4562C185.947 17.5302 183.575 15.1581 180.649 15.1581C177.723 15.1581 175.351 17.5302 175.351 20.4562C175.351 23.3823 177.723 25.7543 180.649 25.7543ZM180.649 29.7279C185.769 29.7279 189.921 25.5768 189.921 20.4562C189.921 15.3356 185.769 11.1846 180.649 11.1846C175.528 11.1846 171.377 15.3356 171.377 20.4562C171.377 25.5768 175.528 29.7279 180.649 29.7279Z" fill="url(#paint15_linear_595_23892)"/>
<path d="M345.008 170.135C344.675 168.829 345.881 167.652 347.179 168.016L363.426 172.582C364.723 172.947 365.139 174.579 364.175 175.521L352.097 187.308C351.133 188.249 349.511 187.794 349.178 186.488L345.008 170.135Z" fill="url(#paint16_linear_595_23892)"/>
<path d="M36.2812 148.512C37.5876 148.181 38.7628 149.388 38.3965 150.685L33.8099 166.926C33.4436 168.223 31.8105 168.637 30.8703 167.672L19.0985 155.579C18.1584 154.613 18.6163 152.992 19.9227 152.661L36.2812 148.512Z" fill="url(#paint17_linear_595_23892)"/>
<path d="M288.951 331.584C290.257 331.253 291.433 332.46 291.066 333.757L286.48 349.998C286.113 351.296 284.48 351.71 283.54 350.744L271.768 338.651C270.828 337.685 271.286 336.064 272.592 335.733L288.951 331.584Z" fill="url(#paint18_linear_595_23892)"/>
<path fill-rule="evenodd" clip-rule="evenodd" d="M357.669 102.917C360.595 102.917 362.967 100.545 362.967 97.6188C362.967 94.6928 360.595 92.3207 357.669 92.3207C354.743 92.3207 352.371 94.6928 352.371 97.6188C352.371 100.545 354.743 102.917 357.669 102.917ZM357.669 106.89C362.789 106.89 366.941 102.739 366.941 97.6188C366.941 92.4982 362.789 88.3472 357.669 88.3472C352.548 88.3472 348.397 92.4982 348.397 97.6188C348.397 102.739 352.548 106.89 357.669 106.89Z" fill="url(#paint19_linear_595_23892)"/>
<defs>
<filter id="filter0_d_595_23892" x="0.512695" y="184.744" width="136.241" height="171.575" filterUnits="userSpaceOnUse" color-interpolation-filters="sRGB">
<feFlood flood-opacity="0" result="BackgroundImageFix"/>
<feColorMatrix in="SourceAlpha" type="matrix" values="0 0 0 0 0 0 0 0 0 0 0 0 0 0 0 0 0 0 127 0" result="hardAlpha"/>
<feOffset dx="3" dy="7"/>
<feGaussianBlur stdDeviation="7.5"/>
<feComposite in2="hardAlpha" operator="out"/>
<feColorMatrix type="matrix" values="0 0 0 0 0.104618 0 0 0 0 0.465612 0 0 0 0 0.545833 0 0 0 0.15 0"/>
<feBlend mode="normal" in2="BackgroundImageFix" result="effect1_dropShadow_595_23892"/>
<feBlend mode="normal" in="SourceGraphic" in2="effect1_dropShadow_595_23892" result="shape"/>
</filter>
<filter id="filter1_d_595_23892" x="235.488" y="0" width="132.241" height="84.0654" filterUnits="userSpaceOnUse" color-interpolation-filters="sRGB">
<feFlood flood-opacity="0" result="BackgroundImageFix"/>
<feColorMatrix in="SourceAlpha" type="matrix" values="0 0 0 0 0 0 0 0 0 0 0 0 0 0 0 0 0 0 127 0" result="hardAlpha"/>
<feOffset dx="6" dy="4"/>
<feGaussianBlur stdDeviation="6.5"/>
<feComposite in2="hardAlpha" operator="out"/>
<feColorMatrix type="matrix" values="0 0 0 0 0.104618 0 0 0 0 0.465612 0 0 0 0 0.545833 0 0 0 0.09 0"/>
<feBlend mode="normal" in2="BackgroundImageFix" result="effect1_dropShadow_595_23892"/>
<feBlend mode="normal" in="SourceGraphic" in2="effect1_dropShadow_595_23892" result="shape"/>
</filter>
<linearGradient id="paint0_linear_595_23892" x1="186.23" y1="-36.2473" x2="189.785" y2="573.205" gradientUnits="userSpaceOnUse">
<stop stop-color="white" stop-opacity="0"/>
<stop offset="1" stop-color="#8EE2F4"/>
</linearGradient>
<linearGradient id="paint1_linear_595_23892" x1="66.9802" y1="65.652" x2="303.007" y2="82.2949" gradientUnits="userSpaceOnUse">
<stop stop-color="#90E3F5"/>
<stop offset="1" stop-color="#65C8DE"/>
</linearGradient>
<linearGradient id="paint2_linear_595_23892" x1="60.1717" y1="238.89" x2="400.595" y2="244.942" gradientUnits="userSpaceOnUse">
<stop stop-color="white"/>
<stop offset="1" stop-color="#BCF3FF"/>
</linearGradient>
<linearGradient id="paint3_linear_595_23892" x1="94.9712" y1="115.581" x2="278.043" y2="115.581" gradientUnits="userSpaceOnUse">
<stop stop-color="#65C8DE"/>
<stop offset="1" stop-color="#D2F7FF"/>
</linearGradient>
<linearGradient id="paint4_linear_595_23892" x1="94.9712" y1="165.048" x2="278.043" y2="165.048" gradientUnits="userSpaceOnUse">
<stop stop-color="#65C8DE"/>
<stop offset="1" stop-color="#D2F7FF"/>
</linearGradient>
<linearGradient id="paint5_linear_595_23892" x1="94.9712" y1="214.517" x2="278.043" y2="214.517" gradientUnits="userSpaceOnUse">
<stop stop-color="#65C8DE"/>
<stop offset="1" stop-color="#D2F7FF"/>
</linearGradient>
<linearGradient id="paint6_linear_595_23892" x1="94.9712" y1="263.985" x2="278.043" y2="263.985" gradientUnits="userSpaceOnUse">
<stop stop-color="#65C8DE"/>
<stop offset="1" stop-color="#D2F7FF"/>
</linearGradient>
<linearGradient id="paint7_linear_595_23892" x1="9.32274" y1="298.907" x2="212.951" y2="315.631" gradientUnits="userSpaceOnUse">
<stop stop-color="white"/>
<stop offset="1" stop-color="#BCF3FF"/>
</linearGradient>
<linearGradient id="paint8_linear_595_23892" x1="239.298" y1="52.5419" x2="392.7" y2="56.9794" gradientUnits="userSpaceOnUse">
<stop stop-color="white"/>
<stop offset="1" stop-color="#BCF3FF"/>
</linearGradient>
<linearGradient id="paint9_linear_595_23892" x1="109.821" y1="259.632" x2="23.5804" y2="259.632" gradientUnits="userSpaceOnUse">
<stop stop-color="#D2F7FF"/>
<stop offset="1" stop-color="#65C8DE"/>
</linearGradient>
<linearGradient id="paint10_linear_595_23892" x1="109.752" y1="314.326" x2="24.2525" y2="314.326" gradientUnits="userSpaceOnUse">
<stop stop-color="#D2F7FF"/>
<stop offset="1" stop-color="#65C8DE"/>
</linearGradient>
<linearGradient id="paint11_linear_595_23892" x1="109.752" y1="285.579" x2="24.2525" y2="285.579" gradientUnits="userSpaceOnUse">
<stop stop-color="#D2F7FF"/>
<stop offset="1" stop-color="#65C8DE"/>
</linearGradient>
<linearGradient id="paint12_linear_595_23892" x1="87.8826" y1="230.885" x2="26.6064" y2="230.885" gradientUnits="userSpaceOnUse">
<stop offset="0.243799" stop-color="#D2F7FF"/>
<stop offset="1" stop-color="#6BCBE0"/>
</linearGradient>
<linearGradient id="paint13_linear_595_23892" x1="144.071" y1="316.352" x2="208.066" y2="316.767" gradientUnits="userSpaceOnUse">
<stop stop-color="#90E3F5"/>
<stop offset="1" stop-color="#65C8DE"/>
</linearGradient>
<linearGradient id="paint14_linear_595_23892" x1="18.4929" y1="25.8573" x2="82.4878" y2="26.2728" gradientUnits="userSpaceOnUse">
<stop stop-color="#90E3F5"/>
<stop offset="1" stop-color="#65C8DE"/>
</linearGradient>
<linearGradient id="paint15_linear_595_23892" x1="171.356" y1="15.4641" x2="190.021" y2="15.5853" gradientUnits="userSpaceOnUse">
<stop stop-color="#90E3F5"/>
<stop offset="1" stop-color="#65C8DE"/>
</linearGradient>
<linearGradient id="paint16_linear_595_23892" x1="339.029" y1="180.843" x2="358.232" y2="162.343" gradientUnits="userSpaceOnUse">
<stop stop-color="#90E3F5"/>
<stop offset="1" stop-color="#65C8DE"/>
</linearGradient>
<linearGradient id="paint17_linear_595_23892" x1="25.58" y1="142.519" x2="44.0555" y2="161.746" gradientUnits="userSpaceOnUse">
<stop stop-color="#90E3F5"/>
<stop offset="1" stop-color="#65C8DE"/>
</linearGradient>
<linearGradient id="paint18_linear_595_23892" x1="278.25" y1="325.591" x2="296.725" y2="344.818" gradientUnits="userSpaceOnUse">
<stop stop-color="#90E3F5"/>
<stop offset="1" stop-color="#65C8DE"/>
</linearGradient>
<linearGradient id="paint19_linear_595_23892" x1="348.376" y1="92.6267" x2="367.041" y2="92.7479" gradientUnits="userSpaceOnUse">
<stop stop-color="#90E3F5"/>
<stop offset="1" stop-color="#65C8DE"/>
</linearGradient>
</defs>
</svg>
