<svg width="5043" height="2336" viewBox="0 0 5043 2336" fill="none" xmlns="http://www.w3.org/2000/svg">
<path d="M2505.15 1585.53C2468.54 1626.88 2405.34 1630.71 2363.99 1594.09L2087.2 1348.94L2608.04 760.86C2644.66 719.516 2707.86 715.685 2749.2 752.302L3026 997.454L2505.15 1585.53Z" fill="url(#paint0_linear_338_9676)" fill-opacity="0.5"/>
<path d="M1825.15 1585.53C1788.54 1626.88 1725.34 1630.71 1683.99 1594.09L1407.2 1348.94L1928.04 760.86C1964.66 719.516 2027.86 715.685 2069.2 752.302L2346 997.454L1825.15 1585.53Z" fill="url(#paint1_linear_338_9676)" fill-opacity="0.5"/>
<path d="M1118.96 1585.53C1082.34 1626.88 1019.14 1630.71 977.796 1594.09L701 1348.94L1221.85 760.86C1258.46 719.516 1321.66 715.685 1363.01 752.302L1639.81 997.454L1118.96 1585.53Z" fill="url(#paint2_linear_338_9676)" fill-opacity="0.5"/>
<path d="M417.958 1585.53C381.341 1626.88 318.14 1630.71 276.796 1594.09L0.000126013 1348.94L520.847 760.86C557.464 719.516 620.665 715.685 662.009 752.302L938.805 997.454L417.958 1585.53Z" fill="url(#paint3_linear_338_9676)" fill-opacity="0.5"/>
<path d="M2464.15 899.531C2427.54 940.875 2364.34 944.707 2322.99 908.089L2046.2 662.937L2567.04 74.8605C2603.66 33.5164 2666.86 29.6847 2708.2 66.3023L2985 311.454L2464.15 899.531Z" fill="url(#paint4_linear_338_9676)" fill-opacity="0.5"/>
<path d="M3092.16 922.531C3055.54 963.875 2992.34 967.707 2950.99 931.089L2674.2 685.937L3195.05 97.8605C3231.66 56.5164 3294.86 52.6847 3336.21 89.3023L3613 334.454L3092.16 922.531Z" fill="url(#paint5_linear_338_9676)" fill-opacity="0.5"/>
<path d="M1757.96 899.531C1721.34 940.875 1658.14 944.707 1616.8 908.089L1340 662.937L1860.85 74.8605C1897.46 33.5164 1960.66 29.6847 2002.01 66.3023L2278.81 311.454L1757.96 899.531Z" fill="url(#paint6_linear_338_9676)" fill-opacity="0.5"/>
<path d="M1056.96 899.531C1020.34 940.875 957.14 944.707 915.796 908.089L639 662.937L1159.85 74.8605C1196.46 33.5164 1259.66 29.6847 1301.01 66.3023L1577.81 311.454L1056.96 899.531Z" fill="url(#paint7_linear_338_9676)" fill-opacity="0.5"/>
<path d="M1238.15 2260.53C1201.54 2301.87 1138.34 2305.71 1096.99 2269.09L820.195 2023.94L1341.04 1435.86C1377.66 1394.52 1440.86 1390.68 1482.2 1427.3L1759 1672.45L1238.15 2260.53Z" fill="url(#paint8_linear_338_9676)" fill-opacity="0.5"/>
<path d="M3819.68 1588.03C3783.38 1629.65 3720.21 1633.96 3678.59 1597.66L3399.92 1354.64L3916.24 762.59C3952.54 720.967 4015.71 716.651 4057.34 752.951L4336 995.974L3819.68 1588.03Z" fill="url(#paint9_linear_338_9676)" fill-opacity="0.5"/>
<path d="M4525.76 1588.03C4489.46 1629.65 4426.29 1633.97 4384.67 1597.67L4106 1354.64L4622.33 762.591C4658.63 720.967 4721.79 716.651 4763.42 752.951L5042.08 995.975L4525.76 1588.03Z" fill="url(#paint10_linear_338_9676)" fill-opacity="0.5"/>
<path d="M1918.15 2260.53C1881.54 2301.88 1818.34 2305.71 1776.99 2269.09L1500.2 2023.94L2021.04 1435.86C2057.66 1394.52 2120.86 1390.68 2162.2 1427.3L2439 1672.45L1918.15 2260.53Z" fill="url(#paint11_linear_338_9676)" fill-opacity="0.5"/>
<path d="M531.958 2260.53C495.341 2301.87 432.14 2305.71 390.796 2269.09L114 2023.94L634.847 1435.86C671.464 1394.52 734.665 1390.68 776.009 1427.3L1052.81 1672.45L531.958 2260.53Z" fill="url(#paint12_linear_338_9676)" fill-opacity="0.5"/>
<path d="M3207.68 2255.03C3171.38 2296.65 3108.21 2300.96 3066.59 2264.66L2787.92 2021.64L3304.24 1429.59C3340.54 1387.97 3403.71 1383.65 3445.34 1419.95L3724 1662.97L3207.68 2255.03Z" fill="url(#paint13_linear_338_9676)" fill-opacity="0.5"/>
<path d="M3913.76 2255.03C3877.46 2296.65 3814.29 2300.97 3772.67 2264.67L3494 2021.64L4010.33 1429.59C4046.63 1387.97 4109.79 1383.65 4151.42 1419.95L4430.08 1662.97L3913.76 2255.03Z" fill="url(#paint14_linear_338_9676)" fill-opacity="0.5"/>
<path d="M2604.68 2212.03C2568.38 2253.65 2505.21 2257.96 2463.58 2221.66L2184.92 1978.64L2701.24 1386.59C2737.54 1344.97 2800.71 1340.65 2842.33 1376.95L3121 1619.97L2604.68 2212.03Z" fill="url(#paint15_linear_338_9676)" fill-opacity="0.5"/>
<path d="M3198.68 1533.03C3162.38 1574.65 3099.21 1578.96 3057.59 1542.66L2778.92 1299.64L3295.24 707.59C3331.54 665.967 3394.71 661.651 3436.34 697.951L3715 940.974L3198.68 1533.03Z" fill="url(#paint16_linear_338_9676)" fill-opacity="0.5"/>
<defs>
<linearGradient id="paint0_linear_338_9676" x1="2263.02" y1="1504.66" x2="2850.17" y2="841.727" gradientUnits="userSpaceOnUse">
<stop stop-color="#F5F5F5"/>
<stop offset="1" stop-color="#F5F5F5" stop-opacity="0"/>
</linearGradient>
<linearGradient id="paint1_linear_338_9676" x1="1583.02" y1="1504.66" x2="2170.17" y2="841.727" gradientUnits="userSpaceOnUse">
<stop stop-color="#F5F5F5"/>
<stop offset="1" stop-color="#F5F5F5" stop-opacity="0"/>
</linearGradient>
<linearGradient id="paint2_linear_338_9676" x1="876.828" y1="1504.66" x2="1463.98" y2="841.727" gradientUnits="userSpaceOnUse">
<stop stop-color="#F5F5F5"/>
<stop offset="1" stop-color="#F5F5F5" stop-opacity="0"/>
</linearGradient>
<linearGradient id="paint3_linear_338_9676" x1="175.828" y1="1504.66" x2="762.977" y2="841.727" gradientUnits="userSpaceOnUse">
<stop stop-color="#F5F5F5"/>
<stop offset="1" stop-color="#F5F5F5" stop-opacity="0"/>
</linearGradient>
<linearGradient id="paint4_linear_338_9676" x1="2222.02" y1="818.664" x2="2809.17" y2="155.727" gradientUnits="userSpaceOnUse">
<stop stop-color="#F5F5F5"/>
<stop offset="1" stop-color="#F5F5F5" stop-opacity="0"/>
</linearGradient>
<linearGradient id="paint5_linear_338_9676" x1="2850.03" y1="841.664" x2="3437.18" y2="178.727" gradientUnits="userSpaceOnUse">
<stop stop-color="#F5F5F5"/>
<stop offset="1" stop-color="#F5F5F5" stop-opacity="0"/>
</linearGradient>
<linearGradient id="paint6_linear_338_9676" x1="1515.83" y1="818.664" x2="2102.98" y2="155.727" gradientUnits="userSpaceOnUse">
<stop stop-color="#F5F5F5"/>
<stop offset="1" stop-color="#F5F5F5" stop-opacity="0"/>
</linearGradient>
<linearGradient id="paint7_linear_338_9676" x1="814.828" y1="818.664" x2="1401.98" y2="155.727" gradientUnits="userSpaceOnUse">
<stop stop-color="#F5F5F5"/>
<stop offset="1" stop-color="#F5F5F5" stop-opacity="0"/>
</linearGradient>
<linearGradient id="paint8_linear_338_9676" x1="996.024" y1="2179.66" x2="1583.17" y2="1516.73" gradientUnits="userSpaceOnUse">
<stop stop-color="#F5F5F5"/>
<stop offset="1" stop-color="#F5F5F5" stop-opacity="0"/>
</linearGradient>
<linearGradient id="paint9_linear_338_9676" x1="3576.94" y1="1509.02" x2="4158.99" y2="841.599" gradientUnits="userSpaceOnUse">
<stop stop-color="#F5F5F5"/>
<stop offset="1" stop-color="#F5F5F5" stop-opacity="0"/>
</linearGradient>
<linearGradient id="paint10_linear_338_9676" x1="4283.02" y1="1509.02" x2="4865.07" y2="841.6" gradientUnits="userSpaceOnUse">
<stop stop-color="#F5F5F5"/>
<stop offset="1" stop-color="#F5F5F5" stop-opacity="0"/>
</linearGradient>
<linearGradient id="paint11_linear_338_9676" x1="1676.02" y1="2179.66" x2="2263.17" y2="1516.73" gradientUnits="userSpaceOnUse">
<stop stop-color="#F5F5F5"/>
<stop offset="1" stop-color="#F5F5F5" stop-opacity="0"/>
</linearGradient>
<linearGradient id="paint12_linear_338_9676" x1="289.828" y1="2179.66" x2="876.977" y2="1516.73" gradientUnits="userSpaceOnUse">
<stop stop-color="#F5F5F5"/>
<stop offset="1" stop-color="#F5F5F5" stop-opacity="0"/>
</linearGradient>
<linearGradient id="paint13_linear_338_9676" x1="2964.94" y1="2176.02" x2="3546.99" y2="1508.6" gradientUnits="userSpaceOnUse">
<stop stop-color="#F5F5F5" stop-opacity="0"/>
<stop offset="1" stop-color="#F5F5F5"/>
</linearGradient>
<linearGradient id="paint14_linear_338_9676" x1="3671.02" y1="2176.02" x2="4253.07" y2="1508.6" gradientUnits="userSpaceOnUse">
<stop stop-color="#F5F5F5" stop-opacity="0"/>
<stop offset="1" stop-color="#F5F5F5"/>
</linearGradient>
<linearGradient id="paint15_linear_338_9676" x1="2361.93" y1="2133.02" x2="2943.98" y2="1465.6" gradientUnits="userSpaceOnUse">
<stop stop-color="#F5F5F5" stop-opacity="0"/>
<stop offset="1" stop-color="#F5F5F5"/>
</linearGradient>
<linearGradient id="paint16_linear_338_9676" x1="2955.94" y1="1454.02" x2="3537.99" y2="786.599" gradientUnits="userSpaceOnUse">
<stop stop-color="#F5F5F5"/>
<stop offset="1" stop-color="#F5F5F5" stop-opacity="0"/>
</linearGradient>
</defs>
</svg>
